# xmcd CD database file
#
# Track frame offsets:
#	150
#	19612
#	38350
#	53475
#	69832
#	87305
#	111207
#	126015
#	143060
#	159037
#	178117
#	194260
#	209975
#	224100
#	237875
#	256840
#	276065
#	293702
#	309072
#
# Disc length: 4409 seconds
#
# Revision: 0
# Processed by: cddbd v1.5.1PL0 Copyright (c) Steve Scherf et al.
# Submitted via: CDex 1.51
#
DISCID=05113713
DTITLE=Various Artist - スーパーロボット魂 Best and Live [ガールズ編]
DYEAR=1900
DGENRE=J-POP
TTITLE0=MIQ - ダンバイン とぶ
TTITLE1=高橋洋子 - 残酷な天使のテーゼ(Live)
TTITLE2=岩永雅子 - Time To Come
TTITLE3=鮎川麻弥 - Ｚ・刻をこえて(Live)
TTITLE4=堀江美都子 - 鋼鉄のコクピット
TTITLE5=高橋洋子 - 魂のルフラン(Live)
TTITLE6=アップルパイ - Ace Attacker
TTITLE7=岩永雅子 - Marionette Messiah(ドラマレス Ver)
TTITLE8=鮎川麻弥 - 風のノー・リプライ(Live)
TTITLE9=MIQ - ICE Man(ドラマレス Ver)
TTITLE10=鮎川麻弥 - 星空のBelieve(LIVE)
TTITLE11=岩永雅子 - コスモスに君と
TTITLE12=堀江美都子 - ボルテスVの歌
TTITLE13=MIQ - エルガイム〜Time For L-Gaim〜(Live)
TTITLE14=アップルパイ - サイレント・ヴォイス
TTITLE15=Sachi and Nao - Just Communication
TTITLE16=鮎川麻弥 - 夢色チェイサー(Live)
TTITLE17=MIQ - 水の星へ愛をこめて
TTITLE18=森口博子 - Eternal Wind〜ほほえみは光る風の中〜(Live)
EXTD=
EXTT0=
EXTT1=
EXTT2=
EXTT3=
EXTT4=
EXTT5=
EXTT6=
EXTT7=
EXTT8=
EXTT9=
EXTT10=
EXTT11=
EXTT12=
EXTT13=
EXTT14=
EXTT15=
EXTT16=
EXTT17=
EXTT18=
PLAYORDER=
